<svg version="1.1"
    xmlns="http://www.w3.org/2000/svg"
    xmlns:xlink="http://www.w3.org/1999/xlink"
    xmlns:i="http://ns.adobe.com/AdobeIllustrator/10.0/"
    xmlns:sketch="http://www.bohemiancoding.com/sketch/ns" height="100%" width="100%" x="0px" y="0px" viewBox="0 0 640 480" xml:space="preserve" preserveAspectRatio="xMidYMid meet" class="">
    <rect x="0px" y="0px" width="100%" height="100%" fill="#3a3c48"></rect>
    <g class="logo-container-box logoContainerBox" transform="scale(0.99) translate(3.232307973534148,2.424227165453374)">
        <g class="containerBody" transform="scale(1.12) translate(92.4392927714756,-25.714285714285722)">
            <g class="sampleIconBox" transform="scale(1) translate(0,0)">
                <g class="sampleIcons_1" transform="scale(1.6666665253815947) translate(1.0000005086263002,94.00000934600831)" fill="#e5e3d6">
                    <g>
                        <g>
                            <g>
                                <path d="M84.2,7.7H15.8C9.8,7.7,5,12.5,5,18.5v63c0,5.9,4.8,10.8,10.8,10.8h68.4c5.9,0,10.8-4.8,10.8-10.8v-63    C95,12.5,90.2,7.7,84.2,7.7z M63.6,78c4.3-4,6.8-9.7,6.8-15.8c0,0,0-0.1,0-0.1h21.1V78H63.6z M42.6,78c-5.7-3-9.4-9.1-9.4-15.8    c0-4,1.3-7.8,3.7-11c0.1-0.1,0.1-0.3,0.1-0.4c0.1-0.2,0.2-0.4,0.2-0.6c0-0.2-0.1-0.4-0.2-0.6c-0.1-0.1,0-0.3-0.1-0.4    c-2.4-3.1-3.7-6.9-3.7-11c0-7,3.9-13.2,9.9-16.1h48.4V38H68.6c-0.9,0-1.7,0.7-1.8,1.6c-0.3,3.4-1.5,6.6-3.4,9.2    c-0.7,0.6-0.7,1.6-0.2,2.4c2.4,3.2,3.7,7,3.7,11c0,6.7-3.7,12.9-9.4,15.8H42.6z M29.9,58.6H8.5v-17h21.3c0.5,3.1,1.7,6,3.4,8.6    C31.6,52.7,30.4,55.5,29.9,58.6z M29.6,38H8.5V22.1h28.2C32.3,26,29.6,31.8,29.6,38z M8.5,62.1h21.1c0,0,0,0.1,0,0.1    c0,6.1,2.6,11.8,6.8,15.8H8.5V62.1z M66.8,50.2c1.7-2.6,2.9-5.5,3.4-8.6h21.3v17H70.1C69.6,55.6,68.5,52.7,66.8,50.2z M91.5,18.5    L91.5,18.5l-39.7,0v-7.3h32.4C88.2,11.2,91.5,14.5,91.5,18.5z M15.8,11.2h32.4v7.3H8.5v0C8.5,14.5,11.8,11.2,15.8,11.2z M8.6,81.6    h39.7v7.2H15.8C11.8,88.8,8.6,85.5,8.6,81.6z M84.2,88.8H51.8v-7.2h6.1c0,0,0,0,0,0c0,0,0,0,0,0h33.5    C91.4,85.5,88.2,88.8,84.2,88.8z"></path>
                            </g>
                        </g>
                    </g>
                </g>
            </g>
            <g class="sampleTexts_1" transform="scale(1) translate(-0.000009155273431815658,29.31500244140625)">
                <g class="logo--name svgLogoName_1 logoNameBox" transform="scale(1) translate(195.68999996185303,237.61999893188477)" fill="#e5e3d6">
                    <path d="M3.44 0L3.03-8.36L9.02-10.00L9.02-41.25L9.02-41.25Q9.02-43.38 8.69-44.08L8.69-44.08L8.69-44.08Q8.36-44.77 6.97-45.35L6.97-45.35L2.71-47.72L3.20-54.45L3.20-54.45Q15.50-56.25 26.90-56.25L26.90-56.25L26.90-56.25Q35.75-56.25 41.16-54.49L41.16-54.49L41.16-54.49Q46.58-52.73 49.08-49.00L49.08-49.00L49.08-49.00Q51.58-45.26 51.58-39.11L51.58-39.11L51.58-39.11Q51.58-34.03 48.95-30.22L48.95-30.22L48.95-30.22Q46.33-26.40 41.49-24.35L41.49-24.35L54.61-3.20L54.53 0L39.61 0L27.47-21.89L23.86-21.98L23.86-12.79L23.86-12.79Q23.86-10.82 24.15-10.29L24.15-10.29L24.15-10.29Q24.44-9.76 25.58-9.10L25.58-9.10L29.11-7.05L28.78 0L3.44 0ZM29.11-31.16L29.11-31.16Q33.46-31.16 35.51-31.98L35.51-31.98L35.51-31.98Q36.33-34.93 36.33-39.03L36.33-39.03L36.33-39.03Q36.33-43.13 34.56-44.85L34.56-44.85L34.56-44.85Q32.80-46.58 28.70-46.58L28.70-46.58L28.70-46.58Q26.40-46.58 24.03-46.33L24.03-46.33L24.03-31.65L24.03-31.65Q26.16-31.16 29.11-31.16L29.11-31.16ZM59.30 0L58.89-8.36L64.88-10.00L64.88-41.41L64.88-41.41Q64.88-43.54 64.55-44.24L64.55-44.24L64.55-44.24Q64.22-44.94 62.83-45.51L62.83-45.51L58.56-47.97L58.97-55.27L85.30-55.27L85.62-46.90L79.72-45.26L79.72-13.28L79.72-13.28Q79.72-11.32 80.01-10.74L80.01-10.74L80.01-10.74Q80.29-10.17 81.52-9.59L81.52-9.59L85.71-7.05L85.46 0L59.30 0ZM134.51 2.38L105.89-34.93L107.29-13.45L107.29-13.45Q107.37-11.56 107.70-10.99L107.70-10.99L107.70-10.99Q108.03-10.41 109.17-9.76L109.17-9.76L113.44-6.89L113.11 0L91.79 0L91.38-8.94L95.81-10.00L96.14-42.31L96.14-42.31Q96.14-43.87 95.89-44.44L95.89-44.44L95.89-44.44Q95.64-45.02 94.74-45.76L94.74-45.76L91.71-48.05L92.28-55.27L109.26-55.27L134.02-23.53L132.87-41.82L132.87-41.82Q132.79-43.79 132.46-44.36L132.46-44.36L132.46-44.36Q132.13-44.94 130.99-45.59L130.99-45.59L126.72-48.38L126.97-55.27L148.12-55.27L148.45-46.90L144.27-45.10L143.94-0.74L134.51 2.38ZM154.45 0L154.04-8.36L160.03-10.00L160.03-41.41L160.03-41.41Q160.03-43.54 159.70-44.24L159.70-44.24L159.70-44.24Q159.37-44.94 157.98-45.51L157.98-45.51L153.72-47.97L154.13-55.27L180.45-55.27L180.78-46.90L174.87-45.26L174.87-13.28L174.87-13.28Q174.87-11.32 175.16-10.74L175.16-10.74L175.16-10.74Q175.45-10.17 176.68-9.59L176.68-9.59L180.86-7.05L180.61 0L154.45 0Z"></path>
                </g>
                <g id="" class="logo--name svgSloganText_1 sloganBox" transform="scale(1) translate(198.4,259.2)" fill="#e5e3d6"></g>
            </g>
        </g>
    </g>
</svg>